<?xml version="1.0" encoding="UTF-8" standalone="no"?>
<!-- Created with Inkscape (http://www.inkscape.org/) -->

<svg
   xmlns:dc="http://purl.org/dc/elements/1.1/"
   xmlns:cc="http://creativecommons.org/ns#"
   xmlns:rdf="http://www.w3.org/1999/02/22-rdf-syntax-ns#"
   xmlns:svg="http://www.w3.org/2000/svg"
   xmlns="http://www.w3.org/2000/svg"
   xmlns:sodipodi="http://sodipodi.sourceforge.net/DTD/sodipodi-0.dtd"
   xmlns:inkscape="http://www.inkscape.org/namespaces/inkscape"
   id="svg2985"
   version="1.1"
   inkscape:version="0.48.4 r9939"
   width="50.812847"
   height="50.831249"
   xml:space="preserve"
   sodipodi:docname="monorail.svg"><metadata
     id="metadata2991"><rdf:RDF><cc:Work
         rdf:about=""><dc:format>image/svg+xml</dc:format><dc:type
           rdf:resource="http://purl.org/dc/dcmitype/StillImage" /><dc:title></dc:title></cc:Work></rdf:RDF></metadata><defs
     id="defs2989"><clipPath
       clipPathUnits="userSpaceOnUse"
       id="clipPath2999"><path
         d="m 0,266.04 222.84,0 0,-111.6 -222.84,0 0,111.6 z"
         id="path3001"
         inkscape:connector-curvature="0" /></clipPath><clipPath
       clipPathUnits="userSpaceOnUse"
       id="clipPath3011"><path
         d="m 0,324 582.48,0 0,-323.94 L 0,0.06 0,324 z"
         id="path3013"
         inkscape:connector-curvature="0" /></clipPath><clipPath
       clipPathUnits="userSpaceOnUse"
       id="clipPath3087"><path
         d="m 274.833,319.115 -40.666,0 0,-40.665 40.666,0 0,40.665 z"
         id="path3089"
         inkscape:connector-curvature="0" /></clipPath><clipPath
       clipPathUnits="userSpaceOnUse"
       id="clipPath3321"><path
         d="m 0,324 582.48,0 0,-323.94 L 0,0.06 0,324 z"
         id="path3323"
         inkscape:connector-curvature="0" /></clipPath><clipPath
       clipPathUnits="userSpaceOnUse"
       id="clipPath3393"><path
         d="m 347.953,319.115 -40.666,0 0,-40.665 40.666,0 0,40.665 z"
         id="path3395"
         inkscape:connector-curvature="0" /></clipPath><clipPath
       clipPathUnits="userSpaceOnUse"
       id="clipPath3629"><path
         d="m 569.389,126.377 -197.306,0 0,-109.331 197.306,0 0,109.331 z"
         id="path3631"
         inkscape:connector-curvature="0" /></clipPath><clipPath
       clipPathUnits="userSpaceOnUse"
       id="clipPath3635"><path
         d="m 372.083,126.377 198,0 0,-110 -198,0 0,110"
         id="path3637"
         inkscape:connector-curvature="0" /></clipPath><clipPath
       clipPathUnits="userSpaceOnUse"
       id="clipPath3641"><path
         d="m 381.492,119.52 c 0,0 -4.5,0 -4.5,-4.5 l 0,-86.616 c 0,0 0,-4.5 4.5,-4.5 l 178.488,0 c 0,0 4.5,0 4.5,4.5 l 0,86.616 c 0,0 0,4.5 -4.5,4.5 l -178.488,0"
         id="path3643"
         inkscape:connector-curvature="0" /></clipPath><clipPath
       clipPathUnits="userSpaceOnUse"
       id="clipPath3737"><path
         d="m 569.389,126.377 -197.306,0 0,-109.331 197.306,0 0,109.331 z"
         id="path3739"
         inkscape:connector-curvature="0" /></clipPath><clipPath
       clipPathUnits="userSpaceOnUse"
       id="clipPath3743"><path
         d="m 372.083,126.377 198,0 0,-110 -198,0 0,110"
         id="path3745"
         inkscape:connector-curvature="0" /></clipPath><clipPath
       clipPathUnits="userSpaceOnUse"
       id="clipPath3749"><path
         d="m 381.492,119.52 c 0,0 -4.5,0 -4.5,-4.5 l 0,-86.616 c 0,0 0,-4.5 4.5,-4.5 l 178.488,0 c 0,0 4.5,0 4.5,4.5 l 0,86.616 c 0,0 0,4.5 -4.5,4.5 l -178.488,0"
         id="path3751"
         inkscape:connector-curvature="0" /></clipPath><clipPath
       clipPathUnits="userSpaceOnUse"
       id="clipPath3823"><path
         d="m 569.389,126.377 -197.306,0 0,-109.331 197.306,0 0,109.331 z"
         id="path3825"
         inkscape:connector-curvature="0" /></clipPath><clipPath
       clipPathUnits="userSpaceOnUse"
       id="clipPath3829"><path
         d="m 372.083,126.377 198,0 0,-110 -198,0 0,110"
         id="path3831"
         inkscape:connector-curvature="0" /></clipPath><clipPath
       clipPathUnits="userSpaceOnUse"
       id="clipPath3835"><path
         d="m 381.492,119.52 c 0,0 -4.5,0 -4.5,-4.5 l 0,-86.616 c 0,0 0,-4.5 4.5,-4.5 l 178.488,0 c 0,0 4.5,0 4.5,4.5 l 0,86.616 c 0,0 0,4.5 -4.5,4.5 l -178.488,0"
         id="path3837"
         inkscape:connector-curvature="0" /></clipPath><clipPath
       clipPathUnits="userSpaceOnUse"
       id="clipPath3969"><path
         d="m 569.389,126.377 -197.306,0 0,-109.331 197.306,0 0,109.331 z"
         id="path3971"
         inkscape:connector-curvature="0" /></clipPath><clipPath
       clipPathUnits="userSpaceOnUse"
       id="clipPath3975"><path
         d="m 372.083,126.377 198,0 0,-110 -198,0 0,110"
         id="path3977"
         inkscape:connector-curvature="0" /></clipPath><clipPath
       clipPathUnits="userSpaceOnUse"
       id="clipPath3981"><path
         d="m 381.492,119.52 c 0,0 -4.5,0 -4.5,-4.5 l 0,-86.616 c 0,0 0,-4.5 4.5,-4.5 l 178.488,0 c 0,0 4.5,0 4.5,4.5 l 0,86.616 c 0,0 0,4.5 -4.5,4.5 l -178.488,0"
         id="path3983"
         inkscape:connector-curvature="0" /></clipPath><clipPath
       clipPathUnits="userSpaceOnUse"
       id="clipPath3999"><path
         d="m 569.389,126.377 -197.306,0 0,-109.331 197.306,0 0,109.331 z"
         id="path4001"
         inkscape:connector-curvature="0" /></clipPath><clipPath
       clipPathUnits="userSpaceOnUse"
       id="clipPath4005"><path
         d="m 372.083,126.377 198,0 0,-110 -198,0 0,110"
         id="path4007"
         inkscape:connector-curvature="0" /></clipPath><clipPath
       clipPathUnits="userSpaceOnUse"
       id="clipPath4011"><path
         d="m 381.492,119.52 c 0,0 -4.5,0 -4.5,-4.5 l 0,-86.616 c 0,0 0,-4.5 4.5,-4.5 l 178.488,0 c 0,0 4.5,0 4.5,4.5 l 0,86.616 c 0,0 0,4.5 -4.5,4.5 l -178.488,0"
         id="path4013"
         inkscape:connector-curvature="0" /></clipPath><clipPath
       clipPathUnits="userSpaceOnUse"
       id="clipPath4175"><path
         d="m 569.389,126.377 -197.306,0 0,-109.331 197.306,0 0,109.331 z"
         id="path4177"
         inkscape:connector-curvature="0" /></clipPath><clipPath
       clipPathUnits="userSpaceOnUse"
       id="clipPath4181"><path
         d="m 372.083,126.377 198,0 0,-110 -198,0 0,110"
         id="path4183"
         inkscape:connector-curvature="0" /></clipPath><clipPath
       clipPathUnits="userSpaceOnUse"
       id="clipPath4187"><path
         d="m 381.492,119.52 c 0,0 -4.5,0 -4.5,-4.5 l 0,-86.616 c 0,0 0,-4.5 4.5,-4.5 l 178.488,0 c 0,0 4.5,0 4.5,4.5 l 0,86.616 c 0,0 0,4.5 -4.5,4.5 l -178.488,0"
         id="path4189"
         inkscape:connector-curvature="0" /></clipPath><clipPath
       clipPathUnits="userSpaceOnUse"
       id="clipPath4205"><path
         d="m 569.389,126.377 -197.306,0 0,-109.331 197.306,0 0,109.331 z"
         id="path4207"
         inkscape:connector-curvature="0" /></clipPath><clipPath
       clipPathUnits="userSpaceOnUse"
       id="clipPath4211"><path
         d="m 372.083,126.377 198,0 0,-110 -198,0 0,110"
         id="path4213"
         inkscape:connector-curvature="0" /></clipPath><clipPath
       clipPathUnits="userSpaceOnUse"
       id="clipPath4217"><path
         d="m 381.492,119.52 c 0,0 -4.5,0 -4.5,-4.5 l 0,-86.616 c 0,0 0,-4.5 4.5,-4.5 l 178.488,0 c 0,0 4.5,0 4.5,4.5 l 0,86.616 c 0,0 0,4.5 -4.5,4.5 l -178.488,0"
         id="path4219"
         inkscape:connector-curvature="0" /></clipPath><clipPath
       clipPathUnits="userSpaceOnUse"
       id="clipPath4241"><path
         d="m 569.389,126.377 -197.306,0 0,-109.331 197.306,0 0,109.331 z"
         id="path4243"
         inkscape:connector-curvature="0" /></clipPath><clipPath
       clipPathUnits="userSpaceOnUse"
       id="clipPath4247"><path
         d="m 372.083,126.377 198,0 0,-110 -198,0 0,110"
         id="path4249"
         inkscape:connector-curvature="0" /></clipPath><clipPath
       clipPathUnits="userSpaceOnUse"
       id="clipPath4253"><path
         d="m 381.492,119.52 c 0,0 -4.5,0 -4.5,-4.5 l 0,-86.616 c 0,0 0,-4.5 4.5,-4.5 l 178.488,0 c 0,0 4.5,0 4.5,4.5 l 0,86.616 c 0,0 0,4.5 -4.5,4.5 l -178.488,0"
         id="path4255"
         inkscape:connector-curvature="0" /></clipPath><clipPath
       clipPathUnits="userSpaceOnUse"
       id="clipPath4395"><path
         d="m 569.389,126.377 -197.306,0 0,-109.331 197.306,0 0,109.331 z"
         id="path4397"
         inkscape:connector-curvature="0" /></clipPath><clipPath
       clipPathUnits="userSpaceOnUse"
       id="clipPath4401"><path
         d="m 372.083,126.377 198,0 0,-110 -198,0 0,110"
         id="path4403"
         inkscape:connector-curvature="0" /></clipPath><clipPath
       clipPathUnits="userSpaceOnUse"
       id="clipPath4407"><path
         d="m 381.492,119.52 c 0,0 -4.5,0 -4.5,-4.5 l 0,-86.616 c 0,0 0,-4.5 4.5,-4.5 l 178.488,0 c 0,0 4.5,0 4.5,4.5 l 0,86.616 c 0,0 0,4.5 -4.5,4.5 l -178.488,0"
         id="path4409"
         inkscape:connector-curvature="0" /></clipPath></defs><sodipodi:namedview
     pagecolor="#ffffff"
     bordercolor="#666666"
     borderopacity="1"
     objecttolerance="10"
     gridtolerance="10"
     guidetolerance="10"
     inkscape:pageopacity="0"
     inkscape:pageshadow="2"
     inkscape:window-width="705"
     inkscape:window-height="449"
     id="namedview2987"
     showgrid="false"
     inkscape:zoom="2.3055199"
     inkscape:cx="7.1919017"
     inkscape:cy="21.998026"
     inkscape:window-x="289"
     inkscape:window-y="420"
     inkscape:window-maximized="0"
     inkscape:current-layer="g2993"
     inkscape:snap-grids="true"
     showborder="true"
     fit-margin-top="0"
     fit-margin-left="0"
     fit-margin-right="0"
     fit-margin-bottom="0" /><g
     id="g2993"
     inkscape:groupmode="layer"
     inkscape:label="monoraillogo"
     transform="matrix(1.25,0,0,-1.25,-251.50431,396.49711)"><g
       id="g2995"
       transform="translate(-6.9686136,-2.1626732)"><g
         id="g2997"
         clip-path="url(#clipPath2999)"><g
           id="g3003"
           transform="matrix(224.304,0,0,111.744,-1.452,154.368)" /></g></g><g
       id="g3075"
       transform="translate(201.30208,296.90369)"><path
         d="m 0,0 c 0,-11.178 9.062,-20.24 20.24,-20.24 11.179,0 20.24,9.062 20.24,20.24 0,11.178 -9.061,20.24 -20.24,20.24 C 9.062,20.24 0,11.178 0,0"
         style="fill:#ffffff;fill-opacity:1;fill-rule:nonzero;stroke:none"
         id="path3077"
         inkscape:connector-curvature="0" /></g><g
       id="g3079"
       transform="translate(204.82208,308.31269)"><path
         d="m 0,0 8.661,-2.547 1.084,2.067 0.749,1.009 c 0,0 -0.278,0.401 -0.123,0.608 0.155,0.207 6.019,2.487 6.019,2.487 l 3.746,1.368 c 0,0 0.424,0.131 1.173,-0.13 0.749,-0.261 1.596,-0.684 2.28,-1.173 0.683,-0.488 2.639,-1.368 5.114,-3.778 2.476,-2.411 3.242,-3.223 4.398,-5.778 1.154,-2.555 1.959,-7.77 1.959,-7.77 l 0.525,-0.42 -1.365,11.095 c 0,0 -5.494,6.44 -8.714,8.154 -3.22,1.715 -7.385,2.8 -11.374,2.38 C 10.142,7.152 5.907,4.317 5.067,3.828 4.227,3.337 0,0 0,0"
         style="fill:#00aeef;fill-opacity:1;fill-rule:nonzero;stroke:none"
         id="path3081"
         inkscape:connector-curvature="0" /></g><g
       id="g3083"
       transform="translate(-32.976914,-1.9173119)"><g
         id="g3085"
         clip-path="url(#clipPath3087)"><g
           id="g3091"
           transform="translate(272.693,295.673)"><path
             d="m 0,0 c -2.137,6.702 -6.305,9.152 -6.85,9.483 -0.209,0.159 -0.36,0.46 -0.376,0.7 -0.055,0.883 -0.28,3.387 -0.28,3.387 -0.034,0.31 0.142,0.689 0.745,0.22 0.559,-0.434 4.693,-3.746 6.17,-9.275 -1.987,4.667 -4.2,5.933 -4.2,5.933 1.595,-2.04 3.483,-3.624 4.698,-8.667 -2.175,6.261 -4.927,7.507 -5.341,7.772 0.109,-0.221 3.978,-3.117 5.452,-9.426 0.096,0.66 0.158,1.333 0.181,2.017 0.354,10.098 -7.547,18.569 -17.645,18.922 -6.147,0.214 -11.692,-2.629 -15.169,-7.165 l -2.299,0.618 c 0.056,0.082 0.113,0.164 0.17,0.245 3.805,5.392 10.169,8.82 17.257,8.572 C -6.316,22.946 2.424,13.574 2.034,2.403 1.645,-8.769 -7.729,-17.509 -18.899,-17.118 c -11.172,0.39 -19.912,9.762 -19.522,20.933 0.034,0.967 0.135,1.916 0.302,2.842 8.315,-0.834 15.393,-1.787 22.602,-3.613 l -0.643,1.001 c -5.226,1.652 -15.468,3.374 -21.612,4.104 0.002,0.056 0.167,0.543 0.167,0.543 4.942,-0.443 16.21,-2.548 20.587,-3.47 -4.533,1.494 -14.122,3.391 -20.319,4.349 l 0.205,0.54 c 3.47,-0.431 15.947,-2.932 19.851,-3.888 -4.182,1.571 -14.388,3.773 -19.528,4.67 l 0.26,0.578 c 3.587,-0.602 15.49,-3.397 19.091,-4.304 -4.104,1.509 -13.356,4.094 -18.71,5.152 l 0.34,0.598 c 3.821,-0.834 18.401,-4.854 18.499,-4.83 l -0.252,1.095 -0.425,0.146 1.508,0.243 c -0.444,-0.345 -0.42,-1.2 -0.42,-1.2 0.499,0.073 1.514,0.254 2.673,0.314 0.879,0.012 1.992,-0.127 2.474,-0.216 1.668,-0.327 4.229,-1.521 5.017,-2.074 2.402,-1.68 4.589,-3.292 6.186,-7.629 0.073,-0.2 0.132,-0.417 0.18,-0.65 l 0.019,0.081 c 0.055,0.215 0.107,0.432 0.155,0.651 -2.455,7.205 -8.773,9.665 -9.481,9.903 -0.303,0.11 -1.175,0.454 -1.36,0.639 0.527,0.049 1.519,-0.329 1.519,-0.329 0.584,-0.192 7.455,-2.893 9.373,-9.976 C -0.102,-0.612 -0.047,-0.308 0,0"
             style="fill:#231f20;fill-opacity:1;fill-rule:nonzero;stroke:none"
             id="path3093"
             inkscape:connector-curvature="0" /></g><g
           id="g3095"
           transform="translate(272.693,295.673)"><path
             d="m 0,0 c -2.137,6.702 -6.305,9.152 -6.85,9.483 -0.209,0.159 -0.36,0.46 -0.376,0.7 -0.055,0.883 -0.28,3.387 -0.28,3.387 -0.034,0.31 0.142,0.689 0.745,0.22 0.559,-0.434 4.693,-3.746 6.17,-9.275 -1.987,4.667 -4.2,5.933 -4.2,5.933 1.595,-2.04 3.483,-3.624 4.698,-8.667 -2.175,6.261 -4.927,7.507 -5.341,7.772 0.109,-0.221 3.978,-3.117 5.452,-9.426 0.096,0.66 0.158,1.333 0.181,2.017 0.354,10.098 -7.547,18.569 -17.645,18.922 -6.147,0.214 -11.692,-2.629 -15.169,-7.165 l -2.299,0.618 c 0.056,0.082 0.113,0.164 0.17,0.245 3.805,5.392 10.169,8.82 17.257,8.572 C -6.316,22.946 2.424,13.574 2.034,2.403 1.645,-8.769 -7.729,-17.509 -18.899,-17.118 c -11.172,0.39 -19.912,9.762 -19.522,20.933 0.034,0.967 0.135,1.916 0.302,2.842 8.315,-0.834 15.393,-1.787 22.602,-3.613 l -0.643,1.001 c -5.226,1.652 -15.468,3.374 -21.612,4.104 0.002,0.056 0.167,0.543 0.167,0.543 4.942,-0.443 16.21,-2.548 20.587,-3.47 -4.533,1.494 -14.122,3.391 -20.319,4.349 l 0.205,0.54 c 3.47,-0.431 15.947,-2.932 19.851,-3.888 -4.182,1.571 -14.388,3.773 -19.528,4.67 l 0.26,0.578 c 3.587,-0.602 15.49,-3.397 19.091,-4.304 -4.104,1.509 -13.356,4.094 -18.71,5.152 l 0.34,0.598 c 3.821,-0.834 18.401,-4.854 18.499,-4.83 l -0.252,1.095 -0.425,0.146 1.508,0.243 c -0.444,-0.345 -0.42,-1.2 -0.42,-1.2 0.499,0.073 1.514,0.254 2.673,0.314 0.879,0.012 1.992,-0.127 2.474,-0.216 1.668,-0.327 4.229,-1.521 5.017,-2.074 2.402,-1.68 4.589,-3.292 6.186,-7.629 0.073,-0.2 0.132,-0.417 0.18,-0.65 l 0.019,0.081 c 0.055,0.215 0.107,0.432 0.155,0.651 -2.455,7.205 -8.773,9.665 -9.481,9.903 -0.303,0.11 -1.175,0.454 -1.36,0.639 0.527,0.049 1.519,-0.329 1.519,-0.329 0.584,-0.192 7.455,-2.893 9.373,-9.976 C -0.102,-0.612 -0.047,-0.308 0,0 z"
             style="fill:none;stroke:#231f20;stroke-width:0.186;stroke-linecap:butt;stroke-linejoin:miter;stroke-miterlimit:3.86400008;stroke-opacity:1;stroke-dasharray:none"
             id="path3097"
             inkscape:connector-curvature="0" /></g></g></g><g
       id="g3099"
       transform="translate(231.59908,300.34269)"><path
         d="M 0,0 C -0.419,-0.016 -0.832,-0.17 -1.089,-0.326 -2.983,0.717 -5.269,0.915 -6.179,0.877 -6.66,0.893 -8.566,0.575 -8.566,0.575 l -0.118,0.634 c 0.958,0.204 1.379,0.257 2.388,0.306 C -2.747,1.477 -1.126,0.6 0,0"
         style="fill:#ffffff;fill-opacity:1;fill-rule:nonzero;stroke:none"
         id="path3101"
         inkscape:connector-curvature="0" /></g><g
       id="g3103"
       transform="translate(228.39308,298.03469)"><path
         d="m 0,0 c -1.402,0.534 -1.892,0.573 -3.643,0.443 0,0 -0.547,-0.086 -0.835,-0.129 L -4.779,0.902 C -3.941,1.04 -3.192,1.133 -2.5,1.147 -1.449,1.169 -0.585,0.954 0.412,0.544 0.256,0.374 0,0 0,0"
         style="fill:#ffffff;fill-opacity:1;fill-rule:nonzero;stroke:none"
         id="path3105"
         inkscape:connector-curvature="0" /></g><g
       id="g3107"
       transform="translate(229.85908,299.59169)"><path
         d="m 0,0 c 0,0 -0.305,-0.226 -0.526,-0.456 -0.949,0.421 -2.375,0.94 -4.238,0.704 L -6.468,0.044 -6.655,0.632 c 0.899,0.197 1.401,0.269 2.388,0.302 C -3.17,1.026 -1.453,0.723 0,0"
         style="fill:#ffffff;fill-opacity:1;fill-rule:nonzero;stroke:none"
         id="path3109"
         inkscape:connector-curvature="0" /></g><g
       id="g3111"
       transform="translate(228.01208,297.46569)"><path
         d="m 0,0 c 0,0 -0.246,-0.405 -0.338,-0.607 -0.697,0.197 -1.476,0.247 -2.056,0.242 -0.238,0.025 -0.409,-0.031 -0.883,-0.096 L -3.678,0.218 C -2.794,0.374 -2.281,0.38 -1.853,0.38 -1.033,0.341 -0.687,0.26 0,0"
         style="fill:#ffffff;fill-opacity:1;fill-rule:nonzero;stroke:none"
         id="path3113"
         inkscape:connector-curvature="0" /></g><g
       id="g3115"
       transform="translate(235.98008,294.95269)"><path
         d="m 0,0 c -2.059,2.366 -4.647,3.32 -6.2,3.855 0.163,0.191 0.333,0.34 0.333,0.34 C -4.743,3.81 -1.87,2.74 0,0"
         style="fill:#ffffff;fill-opacity:1;fill-rule:nonzero;stroke:none"
         id="path3117"
         inkscape:connector-curvature="0" /></g><g
       id="g3119"
       transform="translate(235.88408,295.98069)"><path
         d="M 0,0 C -1.91,1.836 -3.802,2.844 -5.432,3.44 -5.304,3.537 -5.16,3.651 -4.994,3.726 -4.054,3.344 -1.899,2.525 0,0"
         style="fill:#ffffff;fill-opacity:1;fill-rule:nonzero;stroke:none"
         id="path3121"
         inkscape:connector-curvature="0" /></g><g
       id="g3123"
       transform="translate(232.16908,300.00669)"><path
         d="M 0,0 C 0.838,-0.399 2.433,-1.515 3.589,-2.963 1.456,-1.074 0.042,-0.448 -0.793,-0.107 -0.576,-0.028 -0.194,-0.009 0,0"
         style="fill:#ffffff;fill-opacity:1;fill-rule:nonzero;stroke:none"
         id="path3125"
         inkscape:connector-curvature="0" /></g><g
       id="g3127"
       transform="translate(236.21308,292.85069)"><path
         d="m 0,0 c -2.114,2.92 -6.092,4.283 -7.429,4.61 0.088,0.155 0.235,0.359 0.235,0.359 C -6.462,4.782 -1.466,3.127 0,0"
         style="fill:#ffffff;fill-opacity:1;fill-rule:nonzero;stroke:none"
         id="path3129"
         inkscape:connector-curvature="0" /></g><g
       id="g3131"
       transform="translate(236.09608,293.92169)"><path
         d="m 0,0 c -2.292,2.773 -5.636,3.832 -6.871,4.224 0.098,0.141 0.274,0.339 0.274,0.339 C -5.445,4.171 -2.082,3.164 0,0"
         style="fill:#ffffff;fill-opacity:1;fill-rule:nonzero;stroke:none"
         id="path3133"
         inkscape:connector-curvature="0" /></g><g
       id="g3135"
       transform="translate(221.06708,303.28769)"><path
         d="M 0,0 -2.642,0.908 3.383,1.876 -0.517,0.843 3.694,1.373 0.033,0.464 4.107,0.759 0,0"
         style="fill:#231f20;fill-opacity:1;fill-rule:nonzero;stroke:none"
         id="path3137"
         inkscape:connector-curvature="0" /></g><g
       id="g3139"
       transform="translate(221.06708,303.28769)"><path
         d="M 0,0 -2.642,0.908 3.383,1.876 -0.517,0.843 3.694,1.373 0.033,0.464 4.107,0.759 0,0 z"
         style="fill:none;stroke:#231f20;stroke-width:0.186;stroke-linecap:butt;stroke-linejoin:miter;stroke-miterlimit:3.86400008;stroke-opacity:1;stroke-dasharray:none"
         id="path3141"
         inkscape:connector-curvature="0" /></g><g
       id="g3143"
       transform="translate(226.71008,313.11869)"><path
         d="m 0,0 0.962,-0.629 c 0.382,-0.328 0.546,-1.16 0.546,-1.16 -0.614,0.441 -1.528,0.85 -1.528,0.85 -0.024,0.017 -0.25,0.188 -0.287,0.266 -0.056,0.086 -0.144,0.185 -0.236,0.248 -0.148,0.102 -0.227,0.095 -0.277,0.108 -0.257,0.046 -0.564,0.001 -0.899,-0.07 l -9.229,-3.382 c -0.213,-0.024 -0.466,-0.141 -0.57,0.101 0,0 0.007,0.104 0.062,0.151 0.071,0.071 9.606,3.791 9.606,3.791 C -1.156,0.466 -0.521,0.298 0,0"
         style="fill:#231f20;fill-opacity:1;fill-rule:nonzero;stroke:none"
         id="path3145"
         inkscape:connector-curvature="0" /></g><g
       id="g3147"
       transform="translate(226.71008,313.11869)"><path
         d="m 0,0 0.962,-0.629 c 0.382,-0.328 0.546,-1.16 0.546,-1.16 -0.614,0.441 -1.528,0.85 -1.528,0.85 -0.024,0.017 -0.25,0.188 -0.287,0.266 -0.056,0.086 -0.144,0.185 -0.236,0.248 -0.148,0.102 -0.227,0.095 -0.277,0.108 -0.257,0.046 -0.564,0.001 -0.899,-0.07 l -9.229,-3.382 c -0.213,-0.024 -0.466,-0.141 -0.57,0.101 0,0 0.007,0.104 0.062,0.151 0.071,0.071 9.606,3.791 9.606,3.791 C -1.156,0.466 -0.521,0.298 0,0 z"
         style="fill:none;stroke:#231f20;stroke-width:0.186;stroke-linecap:butt;stroke-linejoin:miter;stroke-miterlimit:3.86400008;stroke-opacity:1;stroke-dasharray:none"
         id="path3149"
         inkscape:connector-curvature="0" /></g><g
       id="g3151"
       transform="translate(220.37608,305.08269)"><path
         d="m 0,0 c 0,0 -0.459,3.634 2.747,6.367 0,0 0.188,0.137 0.504,0.322 C 3.683,6.834 4.896,7.53 5.526,7.172 5.69,7.066 5.778,6.671 5.778,6.671 L 6.931,1.995 C 6.924,1.786 6.735,1.596 6.552,1.547 6.073,1.669 5.506,1.816 4.921,1.675 3.993,1.451 3.51,0.649 3.074,0.606 3.067,0.63 1.322,0.212 0,0"
         style="fill:#231f20;fill-opacity:1;fill-rule:nonzero;stroke:none"
         id="path3153"
         inkscape:connector-curvature="0" /></g><g
       id="g3155"
       transform="translate(220.37608,305.08269)"><path
         d="m 0,0 c 0,0 -0.459,3.634 2.747,6.367 0,0 0.188,0.137 0.504,0.322 C 3.683,6.834 4.896,7.53 5.526,7.172 5.69,7.066 5.778,6.671 5.778,6.671 L 6.931,1.995 C 6.924,1.786 6.735,1.596 6.552,1.547 6.073,1.669 5.506,1.816 4.921,1.675 3.993,1.451 3.51,0.649 3.074,0.606 3.067,0.63 1.322,0.212 0,0 z"
         style="fill:none;stroke:#231f20;stroke-width:0.186;stroke-linecap:butt;stroke-linejoin:miter;stroke-miterlimit:3.86400008;stroke-opacity:1;stroke-dasharray:none"
         id="path3157"
         inkscape:connector-curvature="0" /></g><g
       id="g3159"
       transform="translate(218.42308,309.90169)"><path
         d="M 0,0 C 1.319,0.527 4.064,1.486 4.134,1.498 1.23,-1.001 1.373,-4.563 1.46,-4.926 l -2.609,-0.409 -1.323,0.398 c 0,0 -0.459,2.401 2.472,4.937"
         style="fill:#231f20;fill-opacity:1;fill-rule:nonzero;stroke:none"
         id="path3161"
         inkscape:connector-curvature="0" /></g><g
       id="g3163"
       transform="translate(218.42308,309.90169)"><path
         d="M 0,0 C 1.319,0.527 4.064,1.486 4.134,1.498 1.23,-1.001 1.373,-4.563 1.46,-4.926 l -2.609,-0.409 -1.323,0.398 c 0,0 -0.459,2.401 2.472,4.937 z"
         style="fill:none;stroke:#231f20;stroke-width:0.186;stroke-linecap:butt;stroke-linejoin:miter;stroke-miterlimit:3.86400008;stroke-opacity:1;stroke-dasharray:none"
         id="path3165"
         inkscape:connector-curvature="0" /></g><g
       id="g3167"
       transform="translate(215.54708,305.08369)"><path
         d="M 0,0 -2.065,0.682 C -2.183,1.597 -1.564,2.633 -0.733,3.37 -0.1,3.932 0.922,4.209 1.635,4.457 1.764,4.483 2.011,4.517 1.796,4.204 -0.251,2.15 0,0 0,0"
         style="fill:#231f20;fill-opacity:1;fill-rule:nonzero;stroke:none"
         id="path3169"
         inkscape:connector-curvature="0" /></g><g
       id="g3171"
       transform="translate(215.54708,305.08369)"><path
         d="M 0,0 -2.065,0.682 C -2.183,1.597 -1.564,2.633 -0.733,3.37 -0.1,3.932 0.922,4.209 1.635,4.457 1.764,4.483 2.011,4.517 1.796,4.204 -0.251,2.15 0,0 0,0 z"
         style="fill:none;stroke:#231f20;stroke-width:0.186;stroke-linecap:butt;stroke-linejoin:miter;stroke-miterlimit:3.86400008;stroke-opacity:1;stroke-dasharray:none"
         id="path3173"
         inkscape:connector-curvature="0" /></g><g
       id="g3175"
       transform="translate(229.63808,311.13169)"><path
         d="M 0,0 C 0,0 0.216,-0.157 0.267,-0.298 0.305,-0.444 0.339,-0.591 0.331,-0.736 0.314,-0.835 0.207,-0.82 0.207,-0.82 0.248,-0.843 -0.896,-0.036 -0.896,-0.036 -0.983,0.031 -1.089,0.181 -1.099,0.241 -1.138,0.481 -1.26,0.797 -1.634,1.17 -1.634,1.17 -0.34,0.277 0,0"
         style="fill:#231f20;fill-opacity:1;fill-rule:nonzero;stroke:none"
         id="path3177"
         inkscape:connector-curvature="0" /></g><g
       id="g3179"
       transform="translate(229.63808,311.13169)"><path
         d="M 0,0 C 0,0 0.216,-0.157 0.267,-0.298 0.305,-0.444 0.339,-0.591 0.331,-0.736 0.314,-0.835 0.207,-0.82 0.207,-0.82 0.248,-0.843 -0.896,-0.036 -0.896,-0.036 -0.983,0.031 -1.089,0.181 -1.099,0.241 -1.138,0.481 -1.26,0.797 -1.634,1.17 -1.634,1.17 -0.34,0.277 0,0 z"
         style="fill:none;stroke:#231f20;stroke-width:0.186;stroke-linecap:butt;stroke-linejoin:miter;stroke-miterlimit:3.86400008;stroke-opacity:1;stroke-dasharray:none"
         id="path3181"
         inkscape:connector-curvature="0" /></g><g
       id="g3183"
       transform="translate(228.27808,310.32169)"><path
         d="M 0,0 0.379,-4.025 C 0.388,-4.147 0.363,-4.461 0.192,-4.351 l -0.318,0.129 c -0.154,0.078 -0.194,0.22 -0.229,0.354 0,0 -0.896,3.142 -1.245,4.777 -0.053,0.19 0.1,0.415 0.312,0.285 L -0.232,0.495 C -0.022,0.358 -0.029,0.142 0,0"
         style="fill:#231f20;fill-opacity:1;fill-rule:nonzero;stroke:none"
         id="path3185"
         inkscape:connector-curvature="0" /></g><g
       id="g3187"
       transform="translate(228.27808,310.32169)"><path
         d="M 0,0 0.379,-4.025 C 0.388,-4.147 0.363,-4.461 0.192,-4.351 l -0.318,0.129 c -0.154,0.078 -0.194,0.22 -0.229,0.354 0,0 -0.896,3.142 -1.245,4.777 -0.053,0.19 0.1,0.415 0.312,0.285 L -0.232,0.495 C -0.022,0.358 -0.029,0.142 0,0 z"
         style="fill:none;stroke:#231f20;stroke-width:0.186;stroke-linecap:butt;stroke-linejoin:miter;stroke-miterlimit:3.86400008;stroke-opacity:1;stroke-dasharray:none"
         id="path3189"
         inkscape:connector-curvature="0" /></g><g
       id="g3191"
       transform="translate(231.44508,309.88869)"><path
         d="M 0,0 C 0.083,-0.084 0.349,-0.389 0.318,-0.68 0.313,-0.729 0.263,-0.778 0.2,-0.75 c 0,0 -0.672,0.471 -1.084,0.695 C -0.983,0 -1.075,0.197 -1.089,0.329 -1.11,0.537 -1.205,0.803 -1.455,1.036 L 0,0"
         style="fill:#231f20;fill-opacity:1;fill-rule:nonzero;stroke:none"
         id="path3193"
         inkscape:connector-curvature="0" /></g><g
       id="g3195"
       transform="translate(231.44508,309.88869)"><path
         d="M 0,0 C 0.083,-0.084 0.349,-0.389 0.318,-0.68 0.313,-0.729 0.263,-0.778 0.2,-0.75 c 0,0 -0.672,0.471 -1.084,0.695 C -0.983,0 -1.075,0.197 -1.089,0.329 -1.11,0.537 -1.205,0.803 -1.455,1.036 L 0,0 z"
         style="fill:none;stroke:#231f20;stroke-width:0.186;stroke-linecap:butt;stroke-linejoin:miter;stroke-miterlimit:3.86400008;stroke-opacity:1;stroke-dasharray:none"
         id="path3197"
         inkscape:connector-curvature="0" /></g><g
       id="g3199"
       transform="translate(229.88408,309.70769)"><path
         d="M 0,0 C 0.252,-0.186 0.23,-0.565 0.279,-0.776 L 0.563,-4.261 C 0.635,-4.768 0.472,-4.87 0.101,-4.7 l -0.765,0.458 c -0.167,0.099 -0.207,0.541 -0.231,0.801 l -0.389,3.774 c 0.005,0.126 0.065,0.25 0.179,0.302 C -0.689,0.55 0,0 0,0"
         style="fill:#231f20;fill-opacity:1;fill-rule:nonzero;stroke:none"
         id="path3201"
         inkscape:connector-curvature="0" /></g><g
       id="g3203"
       transform="translate(229.88408,309.70769)"><path
         d="M 0,0 C 0.252,-0.186 0.23,-0.565 0.279,-0.776 L 0.563,-4.261 C 0.635,-4.768 0.472,-4.87 0.101,-4.7 l -0.765,0.458 c -0.167,0.099 -0.207,0.541 -0.231,0.801 l -0.389,3.774 c 0.005,0.126 0.065,0.25 0.179,0.302 C -0.689,0.55 0,0 0,0 z"
         style="fill:none;stroke:#231f20;stroke-width:0.186;stroke-linecap:butt;stroke-linejoin:miter;stroke-miterlimit:3.86400008;stroke-opacity:1;stroke-dasharray:none"
         id="path3205"
         inkscape:connector-curvature="0" /></g><g
       id="g3207"
       transform="translate(230.83508,309.12769)"><path
         d="m 0,0 0.812,-0.557 c 0.192,-0.262 0.181,-0.641 0.181,-0.641 0,0 0.223,-2.041 0.286,-3.441 C 1.292,-4.833 1.198,-5.258 0.898,-5.09 l -0.784,0.484 c 0,0 -0.152,0.155 -0.155,0.497 l -0.33,3.648 C -0.385,-0.083 -0.425,0.322 0,0"
         style="fill:#231f20;fill-opacity:1;fill-rule:nonzero;stroke:none"
         id="path3209"
         inkscape:connector-curvature="0" /></g><g
       id="g3211"
       transform="translate(230.83508,309.12769)"><path
         d="m 0,0 0.812,-0.557 c 0.192,-0.262 0.181,-0.641 0.181,-0.641 0,0 0.223,-2.041 0.286,-3.441 C 1.292,-4.833 1.198,-5.258 0.898,-5.09 l -0.784,0.484 c 0,0 -0.152,0.155 -0.155,0.497 l -0.33,3.648 C -0.385,-0.083 -0.425,0.322 0,0 z"
         style="fill:none;stroke:#231f20;stroke-width:0.186;stroke-linecap:butt;stroke-linejoin:miter;stroke-miterlimit:3.86400008;stroke-opacity:1;stroke-dasharray:none"
         id="path3213"
         inkscape:connector-curvature="0" /></g><g
       id="g3215"
       transform="translate(238.36308,301.49969)"><path
         d="M 0,0 C -2.478,4.815 -4.913,6.207 -5.998,7.161 -6.048,7.201 -6.156,7.29 -6.155,7.358 -6.171,7.536 -6.377,7.958 -6.637,8.26 -4.84,6.625 -2.294,5.313 0,0"
         style="fill:#231f20;fill-opacity:1;fill-rule:nonzero;stroke:none"
         id="path3217"
         inkscape:connector-curvature="0" /></g><g
       id="g3219"
       transform="translate(238.36308,301.49969)"><path
         d="M 0,0 C -2.478,4.815 -4.913,6.207 -5.998,7.161 -6.048,7.201 -6.156,7.29 -6.155,7.358 -6.171,7.536 -6.377,7.958 -6.637,8.26 -4.84,6.625 -2.294,5.313 0,0 z"
         style="fill:none;stroke:#231f20;stroke-width:0.186;stroke-linecap:butt;stroke-linejoin:miter;stroke-miterlimit:3.86400008;stroke-opacity:1;stroke-dasharray:none"
         id="path3221"
         inkscape:connector-curvature="0" /></g><g
       id="g3223"
       transform="translate(207.08308,285.61069)"><path
         d="m 0,0 0.883,5.072 0.14,0 1.358,-3.544 1.37,3.543 0.133,0.002 0.876,-5.066 -0.7,0 L 3.605,2.929 2.381,-0.232 1.157,2.929 0.707,0.006 0,0"
         style="fill:#00a4d7;fill-opacity:1;fill-rule:nonzero;stroke:none"
         id="path3225"
         inkscape:connector-curvature="0" /></g><g
       id="g3227"
       transform="translate(216.84108,285.60369)"><path
         d="m 0,0 0,5.251 3.127,-3.7 0,3.353 0.674,0 0,-5.238 -3.12,3.72 L 0.668,0 0,0"
         style="fill:#00a4d7;fill-opacity:1;fill-rule:nonzero;stroke:none"
         id="path3229"
         inkscape:connector-curvature="0" /></g><g
       id="g3231"
       transform="translate(235.07208,286.31069)"><path
         d="m 0,0 0,4.195 -0.676,0 0,-4.89 1.942,0 L 1.266,0 0,0"
         style="fill:#00a4d7;fill-opacity:1;fill-rule:nonzero;stroke:none"
         id="path3233"
         inkscape:connector-curvature="0" /></g><path
       d="m 233.03208,285.61469 0.67578,0 0,4.8906 -0.67578,0 0,-4.8906 z"
       style="fill:#00a4d7;fill-opacity:1;fill-rule:nonzero;stroke:none"
       id="path3235"
       inkscape:connector-curvature="0" /><g
       id="g3237"
       transform="translate(214.18908,286.22469)"><path
         d="m 0,0 c -0.874,0 -1.583,0.822 -1.583,1.838 0,1.015 0.709,1.839 1.583,1.839 0.874,0 1.583,-0.824 1.583,-1.839 C 1.583,0.822 0.874,0 0,0 m 0.005,4.392 c -1.255,0 -2.272,-1.146 -2.272,-2.559 0,-1.413 1.017,-2.559 2.272,-2.559 1.255,0 2.273,1.146 2.273,2.559 0,1.413 -1.018,2.559 -2.273,2.559"
         style="fill:#00a4d7;fill-opacity:1;fill-rule:nonzero;stroke:none"
         id="path3239"
         inkscape:connector-curvature="0" /></g><g
       id="g3241"
       transform="translate(223.29408,286.22669)"><path
         d="m 0,0 c -0.875,0 -1.583,0.822 -1.583,1.838 0,1.015 0.708,1.839 1.583,1.839 0.874,0 1.583,-0.824 1.583,-1.839 C 1.583,0.822 0.874,0 0,0 m 0.005,4.392 c -1.255,0 -2.273,-1.146 -2.273,-2.559 0,-1.413 1.018,-2.559 2.273,-2.559 1.255,0 2.272,1.146 2.272,2.559 0,1.413 -1.017,2.559 -2.272,2.559"
         style="fill:#00a4d7;fill-opacity:1;fill-rule:nonzero;stroke:none"
         id="path3243"
         inkscape:connector-curvature="0" /></g><g
       id="g3245"
       transform="translate(230.69308,289.11169)"><path
         d="m 0,0 0.627,-1.613 -1.253,0 L 0,0 z m -0.9,-2.313 1.801,0 0.472,-1.186 0.73,10e-4 -2.113,5.216 -2.098,-5.221 0.732,0 0.476,1.19"
         style="fill:#00a4d7;fill-opacity:1;fill-rule:nonzero;stroke:none"
         id="path3247"
         inkscape:connector-curvature="0" /></g><g
       id="g3249"
       transform="translate(226.72008,288.25769)"><path
         d="m 0,0 c -0.024,-0.001 -0.036,-0.002 -0.061,0 l 0,1.559 c 0.023,0.002 0.018,0 0.039,0 C 0.194,1.563 0.635,1.563 0.896,1.3 1.026,1.168 1.067,0.97 1.067,0.777 1.067,0.594 1.036,0.402 0.912,0.277 0.618,-0.018 0.268,0.004 0,0 M 0.756,-0.571 C 1.296,-0.433 1.7,0.13 1.7,0.805 1.7,1.565 1.184,2.185 0.539,2.211 0.434,2.229 0.32,2.242 0.201,2.246 0.114,2.248 0.03,2.246 -0.05,2.24 l 0,0.003 -0.678,-10e-4 0,-4.905 0.678,0 0,2.017 0.087,0 1.228,-2.001 0.817,0 -1.326,2.076"
         style="fill:#00a4d7;fill-opacity:1;fill-rule:nonzero;stroke:none"
         id="path3251"
         inkscape:connector-curvature="0" /></g><g
       id="g3253"
       transform="translate(209.40908,292.01369)"><path
         d="m 0,0 c -0.201,0 -0.383,0.042 -0.523,0.114 l 0.019,0.288 c 0.144,-0.087 0.296,-0.144 0.455,-0.144 0.243,0 0.368,0.126 0.368,0.273 0,0.445 -0.839,0.27 -0.839,0.892 0,0.322 0.247,0.565 0.623,0.565 0.159,0 0.299,-0.026 0.41,-0.068 L 0.498,1.647 C 0.398,1.692 0.262,1.731 0.118,1.731 -0.091,1.731 -0.201,1.616 -0.201,1.465 -0.201,1.066 0.63,1.188 0.63,0.584 0.63,0.273 0.402,0 0,0"
         style="fill:#ffffff;fill-opacity:1;fill-rule:nonzero;stroke:none"
         id="path3255"
         inkscape:connector-curvature="0" /></g><g
       id="g3257"
       transform="translate(211.16908,293.75869)"><path
         d="m 0,0 c -0.205,0 -0.387,-0.151 -0.395,-0.604 l 0.774,0 C 0.379,-0.201 0.254,0 0,0 m -0.395,-0.846 c 0,-0.447 0.175,-0.656 0.528,-0.656 0.159,0 0.334,0.079 0.444,0.159 L 0.592,-1.631 C 0.44,-1.703 0.243,-1.745 0.049,-1.745 c -0.512,0 -0.778,0.387 -0.778,0.994 0,0.608 0.266,0.994 0.748,0.994 0.436,0 0.679,-0.349 0.679,-0.918 l 0,-0.171 -1.093,0"
         style="fill:#ffffff;fill-opacity:1;fill-rule:nonzero;stroke:none"
         id="path3259"
         inkscape:connector-curvature="0" /></g><g
       id="g3261"
       transform="translate(213.37408,292.98869)"><path
         d="m 0,0 c -0.057,0.007 -0.136,0.007 -0.224,0.007 -0.375,0 -0.553,-0.178 -0.553,-0.403 0,-0.204 0.106,-0.336 0.326,-0.336 0.277,0 0.451,0.223 0.451,0.489 L 0,0 z m 0.031,-0.949 -0.019,0.261 -0.008,0 c -0.087,-0.147 -0.247,-0.288 -0.543,-0.288 -0.318,0 -0.557,0.186 -0.557,0.558 0,0.376 0.246,0.653 0.91,0.653 l 0.186,0 0,0.087 c 0,0.145 -0.011,0.228 -0.072,0.311 -0.064,0.088 -0.19,0.122 -0.323,0.122 -0.197,0 -0.386,-0.08 -0.497,-0.201 l -0.034,0.299 c 0.16,0.102 0.357,0.16 0.547,0.16 0.284,0 0.455,-0.121 0.516,-0.183 C 0.22,0.747 0.304,0.63 0.304,0.356 l 0,-1.009 c 0,-0.114 0.007,-0.228 0.015,-0.296 l -0.288,0"
         style="fill:#ffffff;fill-opacity:1;fill-rule:nonzero;stroke:none"
         id="path3263"
         inkscape:connector-curvature="0" /></g><g
       id="g3265"
       transform="translate(214.82708,292.01369)"><path
         d="m 0,0 c -0.292,0 -0.447,0.118 -0.447,0.459 l 0,1.245 -0.308,0 0,0.258 0.308,0 0,0.395 0.318,0.094 0,-0.489 0.399,0 0,-0.258 -0.399,0 0,-1.142 c 0,-0.22 0.057,-0.304 0.201,-0.304 0.08,0 0.137,0.023 0.198,0.05 l 0,-0.259 C 0.194,0.023 0.087,0 0,0"
         style="fill:#ffffff;fill-opacity:1;fill-rule:nonzero;stroke:none"
         id="path3267"
         inkscape:connector-curvature="0" /></g><g
       id="g3269"
       transform="translate(216.10608,292.01369)"><path
         d="m 0,0 c -0.292,0 -0.448,0.118 -0.448,0.459 l 0,1.245 -0.307,0 0,0.258 0.307,0 0,0.395 0.319,0.094 0,-0.489 0.398,0 0,-0.258 -0.398,0 0,-1.142 c 0,-0.22 0.057,-0.304 0.201,-0.304 0.08,0 0.136,0.023 0.197,0.05 l 0,-0.259 C 0.193,0.023 0.087,0 0,0"
         style="fill:#ffffff;fill-opacity:1;fill-rule:nonzero;stroke:none"
         id="path3271"
         inkscape:connector-curvature="0" /></g><path
       d="m 216.83808,292.03969 0.31879,0 0,2.8457 -0.31879,0 0,-2.8457 z"
       style="fill:#ffffff;fill-opacity:1;fill-rule:nonzero;stroke:none"
       id="path3273"
       inkscape:connector-curvature="0" /><g
       id="g3275"
       transform="translate(218.38908,293.75869)"><path
         d="m 0,0 c -0.205,0 -0.387,-0.151 -0.395,-0.604 l 0.775,0 C 0.38,-0.201 0.254,0 0,0 m -0.395,-0.846 c 0,-0.447 0.175,-0.656 0.528,-0.656 0.159,0 0.334,0.079 0.444,0.159 L 0.592,-1.631 C 0.44,-1.703 0.243,-1.745 0.05,-1.745 c -0.512,0 -0.778,0.387 -0.778,0.994 0,0.608 0.266,0.994 0.747,0.994 0.437,0 0.679,-0.349 0.679,-0.918 l 0,-0.171 -1.093,0"
         style="fill:#ffffff;fill-opacity:1;fill-rule:nonzero;stroke:none"
         id="path3277"
         inkscape:connector-curvature="0" /></g><g
       id="g3279"
       transform="translate(220.50608,292.01369)"><path
         d="m 0,0 c -0.577,0 -0.857,0.429 -0.857,0.976 0,0.626 0.326,1.012 0.865,1.012 0.133,0 0.281,-0.026 0.383,-0.076 L 0.376,1.624 c -0.11,0.061 -0.22,0.091 -0.368,0.091 -0.311,0 -0.531,-0.216 -0.531,-0.739 0,-0.449 0.212,-0.703 0.523,-0.703 0.152,0 0.281,0.045 0.391,0.103 L 0.406,0.083 C 0.311,0.042 0.141,0 0,0"
         style="fill:#ffffff;fill-opacity:1;fill-rule:nonzero;stroke:none"
         id="path3281"
         inkscape:connector-curvature="0" /></g><g
       id="g3283"
       transform="translate(222.00508,293.75869)"><path
         d="m 0,0 c -0.205,0 -0.387,-0.151 -0.395,-0.604 l 0.774,0 C 0.379,-0.201 0.254,0 0,0 m -0.395,-0.846 c 0,-0.447 0.175,-0.656 0.527,-0.656 0.16,0 0.335,0.079 0.444,0.159 L 0.592,-1.631 C 0.439,-1.703 0.243,-1.745 0.049,-1.745 c -0.512,0 -0.778,0.387 -0.778,0.994 0,0.608 0.266,0.994 0.748,0.994 0.436,0 0.679,-0.349 0.679,-0.918 l 0,-0.171 -1.093,0"
         style="fill:#ffffff;fill-opacity:1;fill-rule:nonzero;stroke:none"
         id="path3285"
         inkscape:connector-curvature="0" /></g><g
       id="g3287"
       transform="translate(224.25508,292.03969)"><path
         d="m 0,0 0,1.249 c 0,0.307 -0.114,0.439 -0.319,0.439 -0.25,0 -0.41,-0.174 -0.41,-0.523 l 0,-1.165 -0.319,0 0,1.518 c 0,0.14 -0.008,0.285 -0.014,0.417 l 0.306,0 0.012,-0.289 0.008,0 c 0.102,0.221 0.265,0.316 0.489,0.316 0.338,0 0.565,-0.194 0.565,-0.619 L 0.318,0 0,0"
         style="fill:#ffffff;fill-opacity:1;fill-rule:nonzero;stroke:none"
         id="path3289"
         inkscape:connector-curvature="0" /></g><g
       id="g3291"
       transform="translate(225.71908,292.01369)"><path
         d="m 0,0 c -0.292,0 -0.447,0.118 -0.447,0.459 l 0,1.245 -0.308,0 0,0.258 0.308,0 0,0.395 0.318,0.094 0,-0.489 0.399,0 0,-0.258 -0.399,0 0,-1.142 c 0,-0.22 0.057,-0.304 0.201,-0.304 0.08,0 0.137,0.023 0.198,0.05 l 0,-0.259 C 0.194,0.023 0.088,0 0,0"
         style="fill:#ffffff;fill-opacity:1;fill-rule:nonzero;stroke:none"
         id="path3293"
         inkscape:connector-curvature="0" /></g><g
       id="g3295"
       transform="translate(227.08508,293.75869)"><path
         d="m 0,0 c -0.205,0 -0.387,-0.151 -0.395,-0.604 l 0.774,0 C 0.379,-0.201 0.254,0 0,0 m -0.395,-0.846 c 0,-0.447 0.174,-0.656 0.528,-0.656 0.159,0 0.334,0.079 0.443,0.159 L 0.592,-1.631 C 0.44,-1.703 0.243,-1.745 0.049,-1.745 c -0.512,0 -0.777,0.387 -0.777,0.994 0,0.608 0.265,0.994 0.747,0.994 0.436,0 0.679,-0.349 0.679,-0.918 l 0,-0.171 -1.093,0"
         style="fill:#ffffff;fill-opacity:1;fill-rule:nonzero;stroke:none"
         id="path3297"
         inkscape:connector-curvature="0" /></g><g
       id="g3299"
       transform="translate(229.02808,293.69769)"><path
         d="m 0,0 c -0.246,0 -0.421,-0.213 -0.421,-0.634 l 0,-1.024 -0.318,0 0,1.517 c 0,0.141 -0.009,0.304 -0.016,0.418 l 0.312,0 0.01,-0.303 0.004,0 c 0.103,0.235 0.266,0.33 0.55,0.33 l 0,-0.316 C 0.084,-0.004 0.042,0 0,0"
         style="fill:#ffffff;fill-opacity:1;fill-rule:nonzero;stroke:none"
         id="path3301"
         inkscape:connector-curvature="0" /></g></g></svg>